<?xml version="1.0" encoding="UTF-8"?>
<svg width="814px" height="167px" viewBox="0 0 814 167" version="1.1" xmlns="http://www.w3.org/2000/svg" xmlns:xlink="http://www.w3.org/1999/xlink">
    <!-- Generator: Sketch 58 (84663) - https://sketch.com -->
    <title>Hatch Logo Colour@svg</title>
    <desc>Created with Sketch.</desc>
    <g id="Logos---For-Export" stroke="none" stroke-width="1" fill="none" fill-rule="evenodd">
        <g id="1000x500" transform="translate(-93.000000, -167.000000)">
            <g id="Hatch-Logo-Colour" transform="translate(93.000000, 167.000000)">
                <path d="M222.346218,159 L222.346218,159 C217.736552,159 214,155.246397 214,150.615695 L214,8.3890207 C214,3.758319 217.736552,0 222.346218,0 L222.346218,0 C226.955884,0 230.692437,3.758319 230.692437,8.3890207 L230.692437,65.9992882 C238.066964,53.8000771 249.774201,43.9963818 269.071897,43.9963818 C296.171289,43.9963818 312,62.2928406 312,89.0867786 L312,150.615695 C312,155.246397 308.263448,159 303.653782,159 C299.044116,159 295.302869,155.246397 295.302869,150.615695 L295.302869,93.2223441 C295.302869,72.3134528 284.032189,59.2465745 264.297936,59.2465745 C245.004934,59.2465745 230.692437,81.1598849 230.692437,97.9803666 L230.692437,150.615695 C230.692437,155.246397 226.955884,159 222.346218,159" id="Fill-1" fill="#277BA0"></path>
                <path d="M364.838054,125.225001 C364.838054,139.533123 377.787887,147.776253 392.901478,147.776253 C413.403433,147.776253 430.241488,131.895553 430.241488,117.418437 L430.241488,106.579378 C422.039771,104.194691 411.029375,101.810004 397.429948,101.810004 C376.493371,101.810004 364.838054,110.916879 364.838054,125.225001 M360.281545,60.7962041 L360.281545,60.7962041 C358.930949,57.0783457 360.800286,52.9755574 364.464187,51.5250293 C374.642728,47.4973494 385.185789,45 398.50949,45 C428.946972,45 446,60.6131278 446,90.0978107 L446,150.592813 C446,155.0242 442.424893,158.615313 438.013257,158.615313 C433.601621,158.615313 430.026514,155.0242 430.026514,150.592813 L430.026514,143.729796 C422.254745,153.921047 409.304912,161 389.662852,161 C368.941249,161 348,149.292501 348,125.877504 C348,102.02594 367.427086,89.450002 395.705484,89.450002 C409.949833,89.450002 420.09566,91.4028166 430.026514,94.219376 L430.026514,90.3184412 C430.026514,70.1518757 417.721602,59.7446886 396.785026,59.7446886 C386.508345,59.7446886 377.942108,61.8571082 369.749738,65.0539031 C365.95031,66.5372911 361.678875,64.6408077 360.281545,60.7962041" id="Fill-3" fill="#277BA0"></path>
                <path d="M512.370201,127.147937 C512.370201,140.820317 519.975929,145.810032 531.269281,145.810032 C534.02089,145.810032 536.565539,145.551619 539.129003,144.964317 C543.451615,143.968254 547.567268,147.313524 547.567268,151.748825 L547.567268,151.748825 C547.567268,154.624254 545.789306,157.208381 543.103548,158.242032 C538.465795,160.018032 533.404717,161 527.360587,161 C509.32697,161 495.644186,152.105905 495.644186,129.318603 L495.644186,61.6097778 L486.95663,61.6097778 C483.113786,61.6097778 480,58.4994286 480,54.6655238 L480,53.8010159 C480,49.9624127 483.113786,46.8520635 486.95663,46.8520635 L495.644186,46.8520635 L495.644186,19.944254 C495.644186,16.1103492 498.757972,13 502.596113,13 L505.413571,13 C509.256416,13 512.370201,16.1103492 512.370201,19.944254 L512.370201,46.8520635 L541.04337,46.8520635 C544.886214,46.8520635 548,49.9624127 548,53.8010159 L548,54.6655238 C548,58.4994286 544.886214,61.6097778 541.04337,61.6097778 L512.370201,61.6097778 L512.370201,127.147937 Z" id="Fill-5" fill="#277BA0"></path>
                <path d="M632.417566,161 C599.702688,161 575,134.351095 575,102.715781 C575,70.869377 599.702688,44 632.417566,44 C650.154152,44 662.299093,50.2013471 671.878069,58.6824633 C674.969423,61.4219389 675.124225,66.2066394 672.286184,69.2088044 L671.35737,70.1891989 C668.599076,73.111619 664.034754,73.2617272 661.041911,70.5832331 C653.386235,63.7251624 644.501524,58.734063 632.201781,58.734063 C609.450539,58.734063 592.117377,78.0182824 592.117377,102.284219 C592.117377,126.765937 609.882109,146.050156 633.285396,146.050156 C645.144188,146.050156 654.770074,141.12942 662.777572,134.013351 C665.606232,131.499038 669.903167,131.606928 672.666153,134.196295 L672.666153,134.196295 C675.752816,137.095261 675.790344,142.020688 672.703681,144.919654 C662.510187,154.507818 650.168225,161 632.417566,161" id="Fill-7" fill="#277BA0"></path>
                <path d="M723.777509,159.197829 L723.777509,159.197829 C719.179964,159.197829 715.453236,155.445257 715.453236,150.815829 L715.453236,8.62825714 C715.453236,3.99882857 719.179964,0.241542857 723.777509,0.241542857 L723.777509,0.241542857 C728.375055,0.241542857 732.101782,3.99882857 732.101782,8.62825714 L732.101782,66.2226857 C739.456918,54.0268286 751.133373,44.2258286 770.380327,44.2258286 C797.408464,44.2258286 813.195555,62.5172571 813.195555,89.3038286 L813.195555,150.815829 C813.195555,155.445257 809.468827,159.197829 804.871282,159.197829 L804.871282,159.197829 C800.273736,159.197829 796.542327,155.445257 796.542327,150.815829 L796.542327,93.4382571 C796.542327,72.5351143 785.301282,59.4718286 765.618918,59.4718286 C746.376645,59.4718286 732.101782,81.3791143 732.101782,98.1949714 L732.101782,150.815829 C732.101782,155.445257 728.375055,159.197829 723.777509,159.197829" id="Fill-9" fill="#277BA0"></path>
                <path d="M115.208859,107.065708 C115.227633,107.037548 115.2511,107.01408 115.269874,106.98592 C109.604869,100.60751 106.159871,92.2109123 106.159871,83.0117336 C106.159871,73.8031681 109.609563,65.4065708 115.279261,59.0234673 C115.255793,58.9906131 115.232326,58.9624523 115.208859,58.9342916 L137.193018,36.9454385 C137.268114,36.8750367 137.343209,36.7999413 137.418304,36.724846 L137.845409,36.2977413 L137.807862,36.2648871 C138.554121,35.2933412 139,34.0824289 139,32.763567 C139,29.5814022 136.418598,27 133.23174,27 C131.757994,27 130.410971,27.5585216 129.39249,28.473746 L127.824875,29.99912 L107.046935,50.7770607 C107.018774,50.7582869 106.995307,50.7348196 106.967146,50.7160458 C100.588736,56.3763567 92.2015254,59.8213552 83.0023467,59.8213552 C73.8031681,59.8213552 65.4159578,56.3763567 59.0375477,50.7160458 C59.0046935,50.7395131 58.9718392,50.7676738 58.938985,50.7911411 L37.0346143,28.8914638 C36.9595189,28.8163684 38.3487826,30.2009387 38.2689938,30.1258434 L37.8418891,29.6987386 L37.8090349,29.7362863 C36.8421825,28.9900264 34.1669111,27.0844823 32.8527427,27.0844823 C29.6658844,27.0844823 27.0844823,29.6658844 27.0844823,32.8480493 C27.0844823,34.3264887 27.6476973,35.6735113 28.5629217,36.6919918 L29.99912,38.1751247 L50.7817542,58.9530654 C50.7629803,58.9812262 50.7395131,59.0046935 50.7207392,59.0328542 C56.3810502,65.4112643 59.8213552,73.8031681 59.8213552,82.9976533 C59.8213552,92.1968319 56.3810502,100.584042 50.7207392,106.962452 C50.7395131,106.990613 50.7629803,107.018774 50.7817542,107.042241 L28.412731,129.411264 L28.4361983,129.430038 C27.5444412,130.448519 27,131.776767 27,133.23174 C27,136.418598 29.5814022,139 32.763567,139 C34.4156644,139 35.8987973,138.300675 36.950132,137.193018 L58.938985,115.204165 C58.9718392,115.227633 59.0046935,115.255793 59.0375477,115.283954 C65.4159578,109.623643 73.8031681,106.178645 83.0023467,106.178645 C92.2015254,106.178645 100.588736,109.623643 106.967146,115.283954 C106.995307,115.260487 107.018774,115.241713 107.046935,115.218246 L127.867116,136.038428 L129.415958,137.540334 C130.429745,138.436785 131.757994,138.981226 133.212966,138.981226 C136.399824,138.981226 138.981226,136.399824 138.981226,133.212966 C138.981226,131.565562 138.286594,130.082429 137.174245,129.031094 L115.208859,107.065708 Z" id="Fill-12" fill="#F9D10D"></path>
                <path d="M73,16.5 C73,6.84594517 78.0118652,0 83,0 C87.9833887,0 93,6.84594517 93,16.5 C93,26.1540548 87.9833887,33 83,33 C78.0118652,33 73,26.1540548 73,16.5" id="Fill-14" fill="#F9D10D"></path>
                <path d="M93,150.5 C93,160.154055 87.9881348,167 83,167 C78.0166113,167 73,160.154055 73,150.5 C73,140.845945 78.0166113,134 83,134 C87.9881348,134 93,140.845945 93,150.5" id="Fill-16" fill="#F9D10D"></path>
                <path d="M150.5,73 C160.154055,73 167,78.0118652 167,83 C167,87.9833887 160.154055,93 150.5,93 C140.845945,93 134,87.9833887 134,83 C134,78.0118652 140.845945,73 150.5,73" id="Fill-18" fill="#F9D10D"></path>
                <path d="M16.5,93 C6.84594517,93 0,87.9881348 0,83 C0,78.0166113 6.84594517,73 16.5,73 C26.1540548,73 33,78.0166113 33,83 C33,87.9881348 26.1540548,93 16.5,93" id="Fill-20" fill="#F9D10D"></path>
            </g>
        </g>
    </g>
</svg>